<svg id="верхняя_хуйня" data-name="верхняя хуйня" xmlns="http://www.w3.org/2000/svg" width="39" height="26" viewBox="0 0 39 26">
  <defs>
    <style>
      .cls-1 {
        fill: #fff;
        stroke: #fff;
        stroke-width: 4px;
        fill-rule: evenodd;
      }
    </style>
  </defs>
  <path id="Эллипс_2" data-name="Эллипс 2" class="cls-1" d="M19.817,2c9.389,0,17,.448,17,1s-7.611,1-17,1-17-.448-17-1S10.428,2,19.817,2Z"/>
  <path id="Эллипс_2_копия" data-name="Эллипс 2 копия" class="cls-1" d="M19.817,12c9.389,0,17,.448,17,1s-7.611,1-17,1-17-.448-17-1S10.428,12,19.817,12Z"/>
  <path id="Эллипс_2_копия_2" data-name="Эллипс 2 копия 2" class="cls-1" d="M19.817,22c9.389,0,17,.448,17,1s-7.611,1-17,1-17-.448-17-1S10.428,22,19.817,22Z"/>
</svg>
